# AST/ASF file generated using VICON BodyLanguage
# -----------------------------------------------
:version 1.10
:name VICON
:units
  mass 1.0
  length 0.45
  angle deg
:documentation
   .ast/.asf automatically generated from VICON data using
   VICON BodyBuilder and BodyLanguage model FoxedUp or BRILLIANT.MOD
:root
   order TX TY TZ RX RY RZ
   axis XYZ
   position 0 0 0  
   orientation 0 0 0 
:bonedata
  begin
     id 1 
     name lhipjoint
     direction 0.630082 -0.636569 0.44472 
     length 2.82754 
     axis 0 0 0  XYZ
  end
  begin
     id 2 
     name lfemur
     direction 0.34202 -0.939693 0  
     length 7.26371  
     axis 0 0 20  XYZ
    dof rx ry rz
    limits (-160.0 20.0)
           (-70.0 70.0)
           (-60.0 70.0)
  end
  begin
     id 3 
     name ltibia
     direction 0.34202 -0.939693 0   
     length 7.88616   
     axis 0 0 20   XYZ
    dof rx
    limits (-10.0 170.0)
  end
  begin
     id 4 
     name lfoot
     direction 0.0603448 -0.165796 0.984312   
     length 1.77861   
     axis -90 7.62852e-016 20   XYZ
    dof rx rz
    limits (-45.0 90.0)
           (-70.0 20.0)
  end
  begin
     id 5 
     name ltoes
     direction 1.53577e-011 -4.21876e-011 1   
     length 0.902235   
     axis -90 7.62852e-016 20   XYZ
    dof rx
    limits (-90.0 20.0)
  end
  begin
     id 6 
     name rhipjoint
     direction -0.656778 -0.61817 0.431866   
     length 2.9117  
     axis 0 0 0  XYZ 
  end
  begin
     id 7 
     name rfemur
     direction -0.34202 -0.939693 0   
     length 6.81603   
     axis 0 0 -20   XYZ
    dof rx ry rz
    limits (-160.0 20.0)
           (-70.0 70.0)
           (-70.0 60.0)
  end
  begin
     id 8 
     name rtibia
     direction -0.34202 -0.939693 0   
     length 8.05997   
     axis 0 0 -20   XYZ
    dof rx
    limits (-10.0 170.0)
 end
 begin
     id 9 
     name rfoot
     direction -0.0862404 -0.236944 0.967688   
     length 1.84899  
     axis -90 -7.62852e-016 -20   XYZ
    dof rx rz
    limits (-45.0 90.0)
           (-20.0 70.0)
  end
  begin
     id 10 
     name rtoes
     direction -1.53561e-011 -4.21798e-011 1   
     length 0.931579   
     axis -90 -7.62852e-016 -20   XYZ
    dof rx
    limits (-90.0 20.0)
  end
  begin
     id 11 
     name lowerback
     direction -0.0110203 0.991769 -0.127564   
     length 2.05686   
     axis 0 0 0   XYZ
    dof rx ry rz
    limits (-20.0 45.0)
           (-30.0 30.0)
           (-30.0 30.0)
  end
  begin
     id 12 
     name upperback
     direction 0.0109719 0.99993 -0.00432479   
     length 2.06234   
     axis 0 0 0   XYZ
    dof rx ry rz
    limits (-20.0 45.0)
           (-30.0 30.0)
           (-30.0 30.0)
  end
  begin
     id 13 
     name thorax
     direction 0.0173308 0.998351 0.0547306   
     length 2.09856   
     axis 0 0 0   XYZ
    dof rx ry rz
    limits (-20.0 45.0)
           (-30.0 30.0)
           (-30.0 30.0)
  end
  begin
     id 14 
     name lowerneck
     direction -0.0311736 0.989033 0.144366   
     length 1.98151   
     axis 0 0 0   XYZ
    dof rx ry rz
    limits (-20.0 45.0)
           (-30.0 30.0)
           (-30.0 30.0)
  end
  begin
     id 15 
     name upperneck
     direction 0.0421057 0.975772 -0.214698   
     length 2.01457   
     axis 0 0 0   XYZ
    dof rx ry rz
    limits (-20.0 45.0)
           (-30.0 30.0)
           (-30.0 30.0)
  end
  begin
     id 16
     name head
     direction 0.0136911 0.995958 -0.0887718  
     length 2.03562  
     axis 0 0 0   XYZ
    dof rx ry rz
    limits (-20.0 45.0)
           (-30.0 30.0)
           (-30.0 30.0)
  end
  begin
     id 17 
     name lclavicle
     direction 0.915335 0.396201 0.0720134  
     length 4.16217  
     axis 0 0 0   XYZ
    dof ry rz
    limits (-20.0 10.0)
           (0.0 20.0)
  end
  begin
     id 18 
     name lhumerus
     direction 1 -4.48965e-011 6.383e-018   
     length 4.93042   
     axis -180 -30 -90   XYZ
    dof rx ry rz
    limits (-60.0 90.0)
           (-90.0 90.0)
           (-90.0 90.0)
  end
  begin
     id 19
     name lradius
     direction 1 -4.48972e-011 8.8689e-027   
     length 3.68177   
     axis -180 -30 -90   XYZ
    dof rx
    limits (-10.0 170.0)
  end
  begin
     id 20
     name lwrist
     direction 1 -4.48953e-011 1.17971e-026   
     length 1.84089   
     axis -7.69454e-015 90 90   XYZ
    dof ry
    limits (-180.0 0.0)
 end
  begin
     id 21 
     name lhand
     direction 1 -4.49027e-011 2.35802e-026   
     length 0.721479   
     axis -1.50533e-014 90 90   XYZ
    dof rx rz
    limits (-90.0 90.0)
           (-45.0 45.0)
  end
  begin
     id 22 
     name lfingers
     direction 1 -4.48915e-011 4.72027e-026   
     length 0.581675   
     axis -3.01059e-014 90 90   XYZ
    dof rx
    limits (0.0 90.0)
  end
  begin
     id 23
     name lthumb
     direction 0.707107 -6.34948e-011 0.707107   
     length 0.835172   
     axis -90 45 -5.12164e-014   XYZ
    dof rx rz
    limits (-45.0 45.0)
           (-45.0 45.0)
  end
  begin
     id 24 
     name rclavicle
     direction -0.882781 0.469197 0.0234974   
     length 3.95647  
     axis 0 0 0   XYZ 
    dof ry rz
    limits (-10.0 20.0)
           (-20.0 0.0)
  end
  begin
     id 25 
     name rhumerus
     direction -1 -4.48965e-011 -1.54906e-018  
     length 5.07905   
     axis -180 30 90   XYZ
    dof rx ry rz
    limits (-90.0 60.0)
           (-90.0 90.0)
           (-90.0 90.0)
  end
  begin
     id 26 
     name rradius
     direction -1 -4.48972e-011 5.47489e-027   
     length 3.54394   
     axis -180 30 90   XYZ
    dof rx
    limits (-10.0 170.0)
  end
  begin
     id 27 
     name rwrist
     direction -1 -4.48955e-011 1.17969e-026   
     length 1.77197   
     axis -7.69454e-015 -90 -90   XYZ
    dof ry
    limits (-180.0 0.0)
  end
  begin
     id 28
     name rhand
     direction -1 -4.48982e-011 2.35888e-026   
     length 0.681156   
     axis -1.50533e-014 -90 -90   XYZ
    dof rx rz
    limits (-90.0 90.0)
           (-45.0 45.0)
  end
  begin
     id 29
     name rfingers
     direction -1 -4.48955e-011 4.71877e-026   
     length 0.549165   
     axis -3.01059e-014 -90 -90   XYZ
    dof rx
    limits (0.0 90.0)
  end
  begin
     id 30
     name rthumb
     direction -0.707107 -6.3491e-011 0.707107   
     length 0.788495   
     axis -90 -45 5.12164e-014   XYZ
    dof rx rz
    limits (-45.0 45.0)
           (-45.0 45.0)
  end
:hierarchy
  begin
    root lhipjoint rhipjoint lowerback
    lhipjoint lfemur
    lfemur ltibia
    ltibia lfoot
    lfoot ltoes
    rhipjoint rfemur
    rfemur rtibia
    rtibia rfoot
    rfoot rtoes
    lowerback upperback
    upperback thorax
    thorax lowerneck lclavicle rclavicle
    lowerneck upperneck
    upperneck head
    lclavicle lhumerus
    lhumerus lradius
    lradius lwrist
    lwrist lhand lthumb
    lhand lfingers
    rclavicle rhumerus
    rhumerus rradius
    rradius rwrist
    rwrist rhand rthumb
    rhand rfingers
  end

#!OML:ASF H:\Bending\Project 1\Capture day 1\Session 1\Subject.ASF
:FULLY-SPECIFIED
:DEGREES
225
root -10.1425 18.0117 -16.8699 -97.6818 89.3966 -104.015
lowerback 8.66237 0.519339 1.44637
upperback -2.1609 1.03675 2.22906
thorax -7.15899 0.50873 1.37572
lowerneck -22.2523 -3.58971 -5.12574
upperneck 26.2507 -3.4682 1.55392
head 12.5479 -1.75142 0.878568
rclavicle 3.27995e-015 1.66979e-014
rhumerus 3.31499 16.1847 -81.4291
rradius 82.005
rwrist -16.272
rhand -25.1899 -42.6942
rfingers 7.12502
rthumb 1.32816 -72.6698
lclavicle 3.27995e-015 1.66979e-014
lhumerus 6.83292 -25.0098 84.616
lradius 76.3055
lwrist 55.8723
lhand -34.2824 21.3445
lfingers 7.12502
lthumb -7.4522 51.1933
rfemur 3.60263 -3.57192 14.563
rtibia 0
rfoot -8.52416 -18.2392
rtoes -2.38276
lfemur -14.0543 -2.12281 -14.8515
ltibia 27.0059
lfoot -19.5015 8.05768
ltoes -29.5205
226
root -10.1504 18.0139 -16.8687 -109.733 89.3564 -116.133
lowerback 8.73873 0.483023 1.39599
upperback -2.1236 0.984241 2.23971
thorax -7.16336 0.485343 1.42253
lowerneck -22.3784 -3.59999 -5.14859
upperneck 26.1663 -3.502 1.65023
head 12.5429 -1.75647 0.911269
rclavicle 3.37934e-015 1.98785e-014
rhumerus 4.55407 15.9255 -81.2584
rradius 80.7641
rwrist -16.075
rhand -25.1966 -42.5957
rfingers 7.12502
rthumb 1.32167 -72.5714
lclavicle 3.37934e-015 1.98785e-014
lhumerus 8.33781 -24.7692 84.2626
lradius 74.3957
lwrist 56.5251
lhand -34.3827 21.4489
lfingers 7.12502
lthumb -7.54896 51.2942
rfemur 3.53039 -3.7149 14.5686
rtibia 9.54166e-015
rfoot -8.54057 -18.229
rtoes -2.19105
lfemur -14.2146 -2.15203 -14.8443
ltibia 27.0358
lfoot -19.3926 8.01742
ltoes -29.7522
227
root -10.1583 18.016 -16.8668 -116.496 89.2895 -122.966
lowerback 8.83269 0.447849 1.35025
upperback -2.0877 0.935448 2.26323
thorax -7.1795 0.463965 1.47975
lowerneck -22.4947 -3.6077 -5.22111
upperneck 26.0555 -3.52663 1.78593
head 12.5271 -1.7573 0.968921
rclavicle -5.36719e-015 -2.8625e-014
rhumerus 5.79988 15.7518 -81.0933
rradius 79.4515
rwrist -15.9338
rhand -25.2039 -42.5483
rfingers 7.12502
rthumb 1.31461 -72.524
lclavicle -5.36719e-015 -2.8625e-014
lhumerus 9.76408 -24.5136 83.9458
lradius 72.4617
lwrist 57.1857
lhand -34.5993 21.4098
lfingers 7.12502
lthumb -7.75808 51.2475
rfemur 3.44221 -3.82134 14.6036
rtibia -1.59028e-014
rfoot -8.52562 -18.2307
rtoes -2.13001
lfemur -14.3733 -2.15966 -14.8098
ltibia 27.0716
lfoot -19.3087 7.97758
ltoes -29.8606
228
root -10.1662 18.0182 -16.8649 -119.703 89.2054 -126.248
lowerback 8.93989 0.413657 1.32709
upperback -2.05223 0.89175 2.29487
thorax -7.20353 0.444397 1.53213
lowerneck -22.6008 -3.62038 -5.35897
upperneck 25.9182 -3.55107 1.97527
head 12.5015 -1.75743 1.05795
rclavicle 1.98785e-015 -7.95139e-016
rhumerus 7.04323 15.6752 -80.906
rradius 78.0558
rwrist -15.9167
rhand -25.2158 -42.5537
rfingers 7.12502
rthumb 1.30318 -72.5295
lclavicle 1.98785e-015 -7.95139e-016
lhumerus 11.1119 -24.2585 83.6543
lradius 70.508
lwrist 57.7002
lhand -34.7865 21.2663
lfingers 7.12502
lthumb -7.93869 51.0972
rfemur 3.34029 -3.90544 14.6695
rtibia -3.18055e-015
rfoot -8.47852 -18.2385
rtoes -2.19225
lfemur -14.5354 -2.16712 -14.7455
ltibia 27.1129
lfoot -19.2559 7.92986
ltoes -29.7417
229
root -10.1739 18.0206 -16.8631 -121.487 89.1075 -128.113
lowerback 9.06968 0.379101 1.33725
upperback -2.0238 0.852038 2.32148
thorax -7.24747 0.425226 1.55996
lowerneck -22.7033 -3.64303 -5.54617
upperneck 25.768 -3.58401 2.20688
head 12.4727 -1.76044 1.16973
rclavicle -5.06901e-015 -3.97569e-015
rhumerus 8.25985 15.6518 -80.714
rradius 76.5917
rwrist -16.0431
rhand -25.2368 -42.5923
rfingers 7.12502
rthumb 1.28283 -72.5682
lclavicle -5.06901e-015 -3.97569e-015
lhumerus 12.3769 -24.0136 83.3811
lradius 68.5596
lwrist 57.9455
lhand -34.8162 21.0881
lfingers 7.12502
lthumb -7.96742 50.9179
rfemur 3.22873 -3.98598 14.7571
rtibia 4.77083e-015
rfoot -8.41003 -18.2437
rtoes -2.32208
lfemur -14.7058 -2.18896 -14.6596
ltibia 27.1566
lfoot -19.2259 7.87158
ltoes -29.4102
230
root -10.1814 18.0235 -16.8611 -123.236 89.0028 -129.954
lowerback 9.21791 0.344698 1.36287
upperback -1.99985 0.814352 2.33861
thorax -7.30643 0.4061 1.56895
lowerneck -22.8166 -3.6749 -5.74402
upperneck 25.6131 -3.62443 2.43748
head 12.445 -1.76782 1.28126
rclavicle 2.38542e-015 -3.97569e-015
rhumerus 9.44322 15.6118 -80.5461
rradius 75.0866
rwrist -16.2765
rhand -25.273 -42.6326
rfingers 7.12502
rthumb 1.24788 -72.6087
lclavicle 2.38542e-015 -3.97569e-015
lhumerus 13.5692 -23.7684 83.1344
lradius 66.6587
lwrist 57.8821
lhand -34.6242 20.9424
lfingers 7.12502
lthumb -7.78209 50.7792
rfemur 3.11003 -4.07552 14.8507
rtibia -2.38542e-014
rfoot -8.33618 -18.2395
rtoes -2.45965
lfemur -14.8866 -2.22615 -14.5681
ltibia 27.1973
lfoot -19.2006 7.80683
ltoes -28.9826
231
root -10.1884 18.0269 -16.8584 -125.349 88.9017 -132.173
lowerback 9.36524 0.312127 1.38008
upperback -1.96868 0.776951 2.34472
thorax -7.35708 0.387133 1.57111
lowerneck -22.9539 -3.70911 -5.90367
upperneck 25.449 -3.66484 2.6168
head 12.4165 -1.77828 1.36635
rclavicle 5.46658e-015 -7.95139e-016
rhumerus 10.6053 15.4923 -80.4309
rradius 73.5622
rwrist -16.5402
rhand -25.3739 -42.6831
rfingers 7.12502
rthumb 1.15049 -72.6598
lclavicle 5.46658e-015 -7.95139e-016
lhumerus 14.7133 -23.5068 82.9188
lradius 64.8488
lwrist 57.574
lhand -34.2262 20.8652
lfingers 7.12502
lthumb -7.39788 50.7158
rfemur 2.98304 -4.17496 14.9363
rtibia 7.95139e-015
rfoot -8.27126 -18.2249
rtoes -2.57316
lfemur -15.0766 -2.26819 -14.4858
ltibia 27.2287
lfoot -19.1635 7.74303
ltoes -28.602
232
root -10.1947 18.0308 -16.8548 -127.566 88.8139 -134.511
lowerback 9.50803 0.283545 1.37644
upperback -1.92926 0.740816 2.33836
thorax -7.39632 0.369291 1.57176
lowerneck -23.1149 -3.73637 -5.98647
upperneck 25.2726 -3.69614 2.71028
head 12.3837 -1.78876 1.40698
rclavicle -5.86415e-015 -3.65764e-014
rhumerus 11.7447 15.2717 -80.3815
rradius 72.0259
rwrist -16.754
rhand -25.453 -42.6551
rfingers 7.12502
rthumb 1.07404 -72.6321
lclavicle -5.86415e-015 -3.65764e-014
lhumerus 15.8164 -23.2249 82.7356
lradius 63.1574
lwrist 57.1572
lhand -33.7027 20.8575
lfingers 7.12502
lthumb -6.89258 50.7253
rfemur 2.84336 -4.27472 15.0065
rtibia -3.18055e-015
rfoot -8.22229 -18.2046
rtoes -2.66543
lfemur -15.2719 -2.30197 -14.4204
ltibia 27.246
lfoot -19.1085 7.68704
ltoes -28.3557
233
root -10.2 18.0353 -16.8504 -129.383 88.7458 -136.467
lowerback 9.64126 0.26034 1.35267
upperback -1.88222 0.707876 2.32176
thorax -7.42199 0.353565 1.57251
lowerneck -23.2897 -3.74966 -5.98284
upperneck 25.0785 -3.71159 2.71326
head 12.3418 -1.79608 1.40117
rclavicle -2.18663e-015 8.74653e-015
rhumerus 12.8599 14.9827 -80.3746
rradius 70.4703
rwrist -16.8698
rhand -25.5456 -42.5842
rfingers 7.12502
rthumb 0.984616 -72.5616
lclavicle -2.18663e-015 8.74653e-015
lhumerus 16.8831 -22.9306 82.5779
lradius 61.5828
lwrist 56.7787
lhand -33.1638 20.8942
lfingers 7.12502
lthumb -6.37234 50.7784
rfemur 2.68533 -4.36117 15.0625
rtibia 7.95139e-015
rfoot -8.18791 -18.1865
rtoes -2.75307
lfemur -15.4681 -2.32202 -14.3705
ltibia 27.2465
lfoot -19.0433 7.6434
ltoes -28.2245
234
root -10.204 18.0402 -16.8459 -130.392 88.6992 -137.633
lowerback 9.75821 0.242004 1.3196
upperback -1.82913 0.679043 2.29944
thorax -7.43187 0.34009 1.57184
lowerneck -23.4653 -3.7476 -5.91608
upperneck 24.8654 -3.70988 2.65296
head 12.2888 -1.79836 1.36372
rclavicle -2.98177e-016 -1.19271e-014
rhumerus 13.9477 14.693 -80.3615
rradius 68.8912
rwrist -16.884
rhand -25.6367 -42.4858
rfingers 7.12502
rthumb 0.896583 -72.4637
lclavicle -2.98177e-016 -1.19271e-014
lhumerus 17.9148 -22.6372 82.4318
lradius 60.102
lwrist 56.5334
lhand -32.7074 20.9355
lfingers 7.12502
lthumb -5.93173 50.8325
rfemur 2.50468 -4.42388 15.1098
rtibia -1.43125e-014
rfoot -8.15982 -18.1778
rtoes -2.84369
lfemur -15.6617 -2.3359 -14.3289
ltibia 27.2294
lfoot -18.9836 7.6156
ltoes -28.0987
235
root -10.2064 18.0457 -16.842 -130.479 88.6721 -137.894
lowerback 9.85251 0.225683 1.28853
upperback -1.77171 0.652312 2.27657
thorax -7.42409 0.327573 1.56912
lowerneck -23.6342 -3.73426 -5.82989
upperneck 24.6405 -3.69436 2.57394
head 12.2283 -1.79525 1.31855
rclavicle -1.49089e-015 3.97569e-015
rhumerus 15.0016 14.4699 -80.2951
rradius 67.3087
rwrist -16.8219
rhand -25.7025 -42.3746
rfingers 7.12502
rthumb 0.83306 -72.3527
lclavicle -1.49089e-015 3.97569e-015
lhumerus 18.9092 -22.3501 82.2845
lradius 58.692
lwrist 56.4298
lhand -32.3866 20.9352
lfingers 7.12502
lthumb -5.62199 50.8406
rfemur 2.30007 -4.4605 15.1532
rtibia -1.59028e-015
rfoot -8.1271 -18.1815
rtoes -2.92057
lfemur -15.8518 -2.36112 -14.2891
ltibia 27.1945
lfoot -18.9427 7.61016
ltoes -27.8594
236
root -10.2071 18.0519 -16.8389 -129.885 88.6598 -137.492
lowerback 9.92092 0.207166 1.26202
upperback -1.71131 0.62275 2.25729
thorax -7.39817 0.313622 1.56806
lowerneck -23.7997 -3.71648 -5.76876
upperneck 24.4196 -3.67042 2.51901
head 12.1697 -1.78745 1.28843
rclavicle 4.57205e-015 -1.82882e-014
rhumerus 16.013 14.3447 -80.1589
rradius 65.7815
rwrist -16.7099
rhand -25.7197 -42.2605
rfingers 7.12502
rthumb 0.816435 -72.2387
lclavicle 4.57205e-015 -1.82882e-014
lhumerus 19.8609 -22.0579 82.1323
lradius 57.3538
lwrist 56.3972
lhand -32.1945 20.8525
lfingers 7.12502
lthumb -5.4365 50.7627
rfemur 2.07277 -4.47723 15.1934
rtibia 6.36111e-015
rfoot -8.08041 -18.1961
rtoes -2.95165
lfemur -16.0407 -2.41681 -14.2492
ltibia 27.1416
lfoot -18.9219 7.63864
ltoes -27.4638
237
root -10.2065 18.0592 -16.8366 -129.129 88.6586 -136.949
lowerback 9.966 0.182258 1.23018
upperback -1.64919 0.583794 2.24355
thorax -7.35698 0.295486 1.57737
lowerneck -23.9728 -3.69955 -5.75817
upperneck 24.2218 -3.64187 2.51162
head 12.1237 -1.77568 1.28567
rclavicle 5.36719e-015 8.74653e-015
rhumerus 16.9739 14.2983 -79.9818
rradius 64.3955
rwrist -16.5516
rhand -25.6724 -42.1401
rfingers 7.12502
rthumb 0.862195 -72.1181
lclavicle 5.36719e-015 8.74653e-015
lhumerus 20.7644 -21.7327 81.984
lradius 56.1178
lwrist 56.3297
lhand -32.074 20.6684
lfingers 7.12502
lthumb -5.32019 50.5817
rfemur 1.82537 -4.48554 15.227
rtibia 1.59028e-015
rfoot -8.01488 -18.2173
rtoes -2.91474
lfemur -16.2344 -2.51367 -14.2133
ltibia 27.0714
lfoot -18.9077 7.71587
ltoes -26.9953
238
root -10.205 18.0678 -16.8344 -128.747 88.6655 -136.796
lowerback 9.99694 0.148155 1.17814
upperback -1.5872 0.530057 2.23492
thorax -7.30775 0.271093 1.60585
lowerneck -24.1626 -3.68456 -5.79599
upperneck 24.0613 -3.60966 2.55001
head 12.0975 -1.76023 1.30897
rclavicle 1.98785e-015 1.90833e-014
rhumerus 17.8802 14.2739 -79.8274
rradius 63.2292
rwrist -16.323
rhand -25.5572 -41.9993
rfingers 7.12502
rthumb 0.973389 -71.9768
lclavicle 1.98785e-015 1.90833e-014
lhumerus 21.6178 -21.344 81.8557
lradius 55.0282
lwrist 56.1418
lhand -31.9455 20.3934
lfingers 7.12502
lthumb -5.19614 50.3097
rfemur 1.56126 -4.49717 15.2515
rtibia -9.54166e-015
rfoot -7.9311 -18.2406
rtoes -2.82147
lfemur -16.4395 -2.64814 -14.1864
ltibia 26.9866
lfoot -18.8769 7.85422
ltoes -26.6497
239
root -10.2036 18.0777 -16.8316 -129.054 88.6764 -137.347
lowerback 10.0272 0.104199 1.09601
upperback -1.52852 0.459606 2.22887
thorax -7.26147 0.239772 1.65675
lowerneck -24.3657 -3.66849 -5.8574
upperneck 23.9413 -3.57291 2.61388
head 12.0904 -1.74112 1.34676
rclavicle -2.18663e-015 -1.03368e-014
rhumerus 18.7362 14.2095 -79.7648
rradius 62.3092
rwrist -15.9925
rhand -25.3948 -41.8303
rfingers 7.12502
rthumb 1.13025 -71.8071
lclavicle -2.18663e-015 -1.03368e-014
lhumerus 22.4278 -20.8753 81.762
lradius 54.1094
lwrist 55.8046
lhand -31.7379 20.0656
lfingers 7.12502
lthumb -4.9957 49.9867
rfemur 1.2842 -4.51985 15.2684
rtibia -1.11319e-014
rfoot -7.83444 -18.2628
rtoes -2.71831
lfemur -16.6613 -2.80386 -14.1696
ltibia 26.8927
lfoot -18.8076 8.05593
ltoes -26.6477
